<?xml version="1.0" encoding="UTF-8" standalone="no"?>
<svg
   xmlns:dc="http://purl.org/dc/elements/1.1/"
   xmlns:cc="http://creativecommons.org/ns#"
   xmlns:rdf="http://www.w3.org/1999/02/22-rdf-syntax-ns#"
   xmlns:svg="http://www.w3.org/2000/svg"
   xmlns="http://www.w3.org/2000/svg"
   xmlns:sodipodi="http://sodipodi.sourceforge.net/DTD/sodipodi-0.dtd"
   xmlns:inkscape="http://www.inkscape.org/namespaces/inkscape"
   version="1.0"
   width="1280.000000pt"
   height="720.000000pt"
   viewBox="0 0 1280.000000 720.000000"
   preserveAspectRatio="xMidYMid meet"
   id="svg10"
   sodipodi:docname="2071331.svg"
   inkscape:version="1.0.2 (e86c870879, 2021-01-15, custom)">
  <defs
     id="defs14" />
  <sodipodi:namedview
     pagecolor="#ffffff"
     bordercolor="#666666"
     borderopacity="1"
     objecttolerance="10"
     gridtolerance="10"
     guidetolerance="10"
     inkscape:pageopacity="0"
     inkscape:pageshadow="2"
     inkscape:window-width="1920"
     inkscape:window-height="1018"
     id="namedview12"
     showgrid="false"
     inkscape:zoom="0.30977586"
     inkscape:cx="853.33333"
     inkscape:cy="480"
     inkscape:window-x="-6"
     inkscape:window-y="-6"
     inkscape:window-maximized="1"
     inkscape:current-layer="svg10"
     inkscape:document-rotation="0" />
  <metadata
     id="metadata2">
Created by potrace 1.15, written by Peter Selinger 2001-2017
<rdf:RDF>
  <cc:Work
     rdf:about="">
    <dc:format>image/svg+xml</dc:format>
    <dc:type
       rdf:resource="http://purl.org/dc/dcmitype/StillImage" />
    <dc:title></dc:title>
  </cc:Work>
</rdf:RDF>
</metadata>
  <path
     d="M 625.5,35.6 C 571.5,39.1 514.8,58.5 470,88.8 422.7,120.8 385.2,164 360.9,214.4 347.6,242 339.3,268 333.6,300 c -4.3,24 -5.2,60.2 -2.2,88 4,37.4 17.7,82.2 36.2,118.8 l 5.3,10.3 -12.3,36.7 c -6.8,20.2 -19.1,57 -27.4,81.8 -8.4,24.9 -15.2,45.9 -15.2,46.9 0,0.9 1.3,2.2 2.9,2.8 2.6,1 2.9,1.4 2.4,4.5 -0.6,3.2 -0.5,3.4 1.8,2.7 4.1,-1.3 93.6,-29.8 131.4,-42 19.8,-6.3 36.8,-11.5 37.8,-11.5 0.9,0 5.2,1.7 9.5,3.9 36.6,18.4 75.6,29.4 117.1,33.2 16.4,1.4 49.8,0.7 65.9,-1.6 95.4,-13.2 176.6,-65.9 226.6,-146.8 16.3,-26.4 31.8,-63.2 40.1,-95.2 7.9,-30.7 11.7,-68.8 9.6,-98.2 C 957.7,256.2 927.5,187 875,132.6 824.1,79.9 759.3,47.3 685.5,37.4 674.7,36 637.3,34.8 625.5,35.6 Z m 39.1,68.4 c 35.7,2.9 65,10.8 95.9,25.9 41.9,20.6 77,51.4 103,90.6 20,30.1 32.3,62.5 37.1,97.9 2.3,16.8 2.3,50.8 0,68 -16.3,120.9 -116.1,214.1 -237.2,221.7 -42.7,2.6 -82.4,-4.4 -121.2,-21.4 -10.7,-4.7 -28.4,-14.3 -33.9,-18.3 -1.7,-1.3 -3.9,-2.4 -4.9,-2.4 -0.9,0 -22.2,6.5 -47.2,14.5 -25,8 -45.6,14.5 -45.7,14.3 -0.2,-0.2 6.2,-19.7 14.1,-43.3 7.9,-23.7 14.4,-44.2 14.4,-45.8 0,-1.6 -1.8,-5.3 -4.4,-9 -41.8,-59.9 -55.4,-142.6 -35.1,-212.7 4.5,-15.2 8.2,-24.5 15.5,-39 20,-39.1 50.5,-73.2 88,-98.2 47.3,-31.6 106.4,-47.2 161.6,-42.8 z"
     id="path4"
     style="fill:#ffffff;stroke:none;stroke-width:0.1" />
  <path
     d="m 532.3,196.4 c -2.3,0.7 -5.6,2.3 -7.5,3.4 -5.1,3.2 -19.9,19 -24.5,26.2 -14.7,22.9 -18,53.4 -9.2,83.2 6.7,22.5 14.9,39.7 29.9,62.9 19,29.2 31.3,45 51,65.3 29.6,30.5 54.5,47.6 92.7,63.5 28.2,11.8 49,18.5 60.7,19.7 8.1,0.8 25.8,-2 36.2,-5.8 14.4,-5.2 30.9,-16.8 37.3,-26.2 6.4,-9.6 13,-31.3 13.8,-45.7 l 0.6,-9.5 -3.1,-3.6 C 808,427.4 799,422 780.8,412.2 737.6,389 732.1,386.8 725.3,390.4 c -1.7,0.8 -8.1,7.3 -14.1,14.3 -17.8,20.7 -21.5,24.3 -24.5,24.3 -3.8,0 -28.7,-12.7 -40.3,-20.5 -13.5,-9.2 -22.3,-16.6 -33.4,-28.1 -13.2,-13.7 -27.5,-33.3 -35.5,-48.6 l -1.8,-3.6 7.2,-7.9 c 9.5,-10.1 13.4,-16.2 17.2,-26.8 3.9,-10.8 3.7,-14.1 -2,-29 -5.1,-13.3 -9.2,-24.3 -16.3,-43.4 -5.8,-15.7 -10.1,-22.1 -16.1,-24 -5.7,-1.7 -28.7,-2.2 -33.4,-0.7 z"
     id="path6"
     style="fill:#ffffff;stroke:none;stroke-width:0.1" />
</svg>
